<svg xmlns="http://www.w3.org/2000/svg" width="538.205" height="479.699" viewBox="0 0 538.205 479.699">
  <g id="Group_13646" data-name="Group 13646" transform="translate(-1101 -8144)">
    <g id="Group_13645" data-name="Group 13645">
      <g id="Group_13644" data-name="Group 13644">
        <g id="Group_13500" data-name="Group 13500" transform="translate(-44 711)">
          <g id="Group_9191" data-name="Group 9191" transform="translate(1441.894 7736.088)">
            <rect id="Rectangle_3938" data-name="Rectangle 3938" width="4.13" height="4.13" transform="translate(11.106 -77.214)" fill="#e78b37"/>
            <rect id="Rectangle_3939" data-name="Rectangle 3939" width="4.13" height="4.13" transform="translate(11.106 -52.244)" fill="#e78b37"/>
            <rect id="Rectangle_3940" data-name="Rectangle 3940" width="4.13" height="4.13" transform="translate(11.106 -27.275)" fill="#e78b37"/>
            <rect id="Rectangle_3941" data-name="Rectangle 3941" width="4.13" height="4.13" transform="translate(11.106 -2.305)" fill="#e78b37"/>
            <rect id="Rectangle_3942" data-name="Rectangle 3942" width="4.13" height="4.13" transform="translate(11.106 22.664)" fill="#e78b37"/>
            <rect id="Rectangle_3943" data-name="Rectangle 3943" width="4.13" height="4.13" transform="translate(11.106 47.634)" fill="#e78b37"/>
            <rect id="Rectangle_3944" data-name="Rectangle 3944" width="4.13" height="4.13" transform="translate(11.106 72.603)" fill="#e78b37"/>
            <rect id="Rectangle_3945" data-name="Rectangle 3945" width="4.13" height="4.13" transform="translate(11.106 97.573)" fill="#e78b37"/>
            <rect id="Rectangle_3946" data-name="Rectangle 3946" width="4.13" height="4.13" transform="translate(11.106 122.542)" fill="#e78b37"/>
            <rect id="Rectangle_3947" data-name="Rectangle 3947" width="4.13" height="4.13" transform="translate(11.106 147.512)" fill="#e78b37"/>
            <rect id="Rectangle_3948" data-name="Rectangle 3948" width="4.13" height="4.13" transform="translate(11.106 172.481)" fill="#e78b37"/>
            <rect id="Rectangle_3949" data-name="Rectangle 3949" width="4.13" height="4.13" transform="translate(33.713 -77.214)" fill="#e78b37"/>
            <rect id="Rectangle_3950" data-name="Rectangle 3950" width="4.13" height="4.13" transform="translate(33.713 -52.244)" fill="#e78b37"/>
            <rect id="Rectangle_3951" data-name="Rectangle 3951" width="4.13" height="4.13" transform="translate(33.713 -27.275)" fill="#e78b37"/>
            <rect id="Rectangle_3952" data-name="Rectangle 3952" width="4.13" height="4.13" transform="translate(33.713 -2.305)" fill="#e78b37"/>
            <rect id="Rectangle_3953" data-name="Rectangle 3953" width="4.13" height="4.13" transform="translate(33.713 22.664)" fill="#e78b37"/>
            <rect id="Rectangle_3954" data-name="Rectangle 3954" width="4.13" height="4.13" transform="translate(33.713 47.634)" fill="#e78b37"/>
            <rect id="Rectangle_3955" data-name="Rectangle 3955" width="4.13" height="4.13" transform="translate(33.713 72.603)" fill="#e78b37"/>
            <rect id="Rectangle_3956" data-name="Rectangle 3956" width="4.13" height="4.13" transform="translate(33.713 97.573)" fill="#e78b37"/>
            <rect id="Rectangle_3957" data-name="Rectangle 3957" width="4.13" height="4.13" transform="translate(33.713 122.542)" fill="#e78b37"/>
            <rect id="Rectangle_3958" data-name="Rectangle 3958" width="4.13" height="4.13" transform="translate(33.713 147.512)" fill="#e78b37"/>
            <rect id="Rectangle_3959" data-name="Rectangle 3959" width="4.13" height="4.13" transform="translate(33.713 172.481)" fill="#e78b37"/>
            <rect id="Rectangle_3960" data-name="Rectangle 3960" width="4.13" height="4.13" transform="translate(56.321 -77.214)" fill="#e78b37"/>
            <rect id="Rectangle_3961" data-name="Rectangle 3961" width="4.13" height="4.13" transform="translate(56.321 -52.244)" fill="#e78b37"/>
            <rect id="Rectangle_3962" data-name="Rectangle 3962" width="4.13" height="4.13" transform="translate(56.321 -27.275)" fill="#e78b37"/>
            <rect id="Rectangle_3963" data-name="Rectangle 3963" width="4.13" height="4.13" transform="translate(56.321 -2.305)" fill="#e78b37"/>
            <rect id="Rectangle_3964" data-name="Rectangle 3964" width="4.13" height="4.13" transform="translate(56.321 22.664)" fill="#e78b37"/>
            <rect id="Rectangle_3965" data-name="Rectangle 3965" width="4.13" height="4.13" transform="translate(56.321 47.634)" fill="#e78b37"/>
            <rect id="Rectangle_3966" data-name="Rectangle 3966" width="4.13" height="4.13" transform="translate(56.321 72.603)" fill="#e78b37"/>
            <rect id="Rectangle_3967" data-name="Rectangle 3967" width="4.13" height="4.13" transform="translate(56.321 97.573)" fill="#e78b37"/>
            <rect id="Rectangle_3968" data-name="Rectangle 3968" width="4.13" height="4.13" transform="translate(56.321 122.542)" fill="#e78b37"/>
            <rect id="Rectangle_3969" data-name="Rectangle 3969" width="4.13" height="4.13" transform="translate(56.321 147.512)" fill="#e78b37"/>
            <rect id="Rectangle_3970" data-name="Rectangle 3970" width="4.13" height="4.13" transform="translate(56.321 172.481)" fill="#e78b37"/>
            <rect id="Rectangle_3971" data-name="Rectangle 3971" width="4.13" height="4.13" transform="translate(78.929 -77.214)" fill="#e78b37"/>
            <rect id="Rectangle_3972" data-name="Rectangle 3972" width="4.13" height="4.13" transform="translate(78.929 -52.244)" fill="#e78b37"/>
            <rect id="Rectangle_3973" data-name="Rectangle 3973" width="4.13" height="4.13" transform="translate(78.929 -27.275)" fill="#e78b37"/>
            <rect id="Rectangle_3974" data-name="Rectangle 3974" width="4.13" height="4.13" transform="translate(78.929 -2.305)" fill="#e78b37"/>
            <rect id="Rectangle_3975" data-name="Rectangle 3975" width="4.13" height="4.13" transform="translate(78.929 22.664)" fill="#e78b37"/>
            <rect id="Rectangle_3976" data-name="Rectangle 3976" width="4.13" height="4.13" transform="translate(78.929 47.634)" fill="#e78b37"/>
            <rect id="Rectangle_3977" data-name="Rectangle 3977" width="4.13" height="4.13" transform="translate(78.929 72.603)" fill="#e78b37"/>
            <rect id="Rectangle_3978" data-name="Rectangle 3978" width="4.13" height="4.13" transform="translate(78.929 97.573)" fill="#e78b37"/>
            <rect id="Rectangle_3979" data-name="Rectangle 3979" width="4.13" height="4.13" transform="translate(78.929 122.542)" fill="#e78b37"/>
            <rect id="Rectangle_3980" data-name="Rectangle 3980" width="4.13" height="4.13" transform="translate(78.929 147.512)" fill="#e78b37"/>
            <rect id="Rectangle_3981" data-name="Rectangle 3981" width="4.13" height="4.13" transform="translate(78.929 172.481)" fill="#e78b37"/>
            <rect id="Rectangle_3982" data-name="Rectangle 3982" width="4.13" height="4.13" transform="translate(101.536 -77.214)" fill="#e78b37"/>
            <rect id="Rectangle_3983" data-name="Rectangle 3983" width="4.13" height="4.13" transform="translate(101.536 -52.244)" fill="#e78b37"/>
            <rect id="Rectangle_3984" data-name="Rectangle 3984" width="4.13" height="4.13" transform="translate(101.536 -27.275)" fill="#e78b37"/>
            <rect id="Rectangle_3985" data-name="Rectangle 3985" width="4.13" height="4.13" transform="translate(101.536 -2.305)" fill="#e78b37"/>
            <rect id="Rectangle_3986" data-name="Rectangle 3986" width="4.13" height="4.13" transform="translate(101.536 22.664)" fill="#e78b37"/>
            <rect id="Rectangle_3987" data-name="Rectangle 3987" width="4.13" height="4.13" transform="translate(101.536 47.634)" fill="#e78b37"/>
            <rect id="Rectangle_3988" data-name="Rectangle 3988" width="4.13" height="4.13" transform="translate(101.536 72.603)" fill="#e78b37"/>
            <rect id="Rectangle_3989" data-name="Rectangle 3989" width="4.13" height="4.13" transform="translate(101.536 97.573)" fill="#e78b37"/>
            <rect id="Rectangle_3990" data-name="Rectangle 3990" width="4.13" height="4.13" transform="translate(101.536 122.542)" fill="#e78b37"/>
            <rect id="Rectangle_3991" data-name="Rectangle 3991" width="4.13" height="4.13" transform="translate(101.536 147.512)" fill="#e78b37"/>
            <rect id="Rectangle_3992" data-name="Rectangle 3992" width="4.13" height="4.13" transform="translate(101.536 172.481)" fill="#e78b37"/>
            <rect id="Rectangle_3993" data-name="Rectangle 3993" width="4.13" height="4.13" transform="translate(124.144 -77.214)" fill="#e78b37"/>
            <rect id="Rectangle_3994" data-name="Rectangle 3994" width="4.13" height="4.13" transform="translate(124.144 -52.244)" fill="#e78b37"/>
            <rect id="Rectangle_3995" data-name="Rectangle 3995" width="4.13" height="4.13" transform="translate(124.144 -27.275)" fill="#e78b37"/>
            <rect id="Rectangle_3996" data-name="Rectangle 3996" width="4.13" height="4.13" transform="translate(124.144 -2.305)" fill="#e78b37"/>
            <rect id="Rectangle_3997" data-name="Rectangle 3997" width="4.13" height="4.13" transform="translate(124.144 22.664)" fill="#e78b37"/>
            <rect id="Rectangle_3998" data-name="Rectangle 3998" width="4.13" height="4.13" transform="translate(124.144 47.634)" fill="#e78b37"/>
            <rect id="Rectangle_3999" data-name="Rectangle 3999" width="4.13" height="4.13" transform="translate(124.144 72.603)" fill="#e78b37"/>
            <rect id="Rectangle_4000" data-name="Rectangle 4000" width="4.13" height="4.13" transform="translate(124.144 97.573)" fill="#e78b37"/>
            <rect id="Rectangle_4001" data-name="Rectangle 4001" width="4.13" height="4.13" transform="translate(124.144 122.542)" fill="#e78b37"/>
            <rect id="Rectangle_4002" data-name="Rectangle 4002" width="4.13" height="4.13" transform="translate(124.144 147.512)" fill="#e78b37"/>
            <rect id="Rectangle_4003" data-name="Rectangle 4003" width="4.13" height="4.13" transform="translate(124.144 172.481)" fill="#e78b37"/>
            <rect id="Rectangle_4004" data-name="Rectangle 4004" width="4.13" height="4.13" transform="translate(146.751 -77.214)" fill="#e78b37"/>
            <rect id="Rectangle_4005" data-name="Rectangle 4005" width="4.13" height="4.13" transform="translate(146.751 -52.244)" fill="#e78b37"/>
            <rect id="Rectangle_4006" data-name="Rectangle 4006" width="4.13" height="4.13" transform="translate(146.751 -27.275)" fill="#e78b37"/>
            <rect id="Rectangle_4007" data-name="Rectangle 4007" width="4.13" height="4.13" transform="translate(146.751 -2.305)" fill="#e78b37"/>
            <rect id="Rectangle_4008" data-name="Rectangle 4008" width="4.13" height="4.13" transform="translate(146.751 22.664)" fill="#e78b37"/>
            <rect id="Rectangle_4009" data-name="Rectangle 4009" width="4.13" height="4.13" transform="translate(146.751 47.634)" fill="#e78b37"/>
            <rect id="Rectangle_4010" data-name="Rectangle 4010" width="4.13" height="4.13" transform="translate(146.751 72.603)" fill="#e78b37"/>
            <rect id="Rectangle_4011" data-name="Rectangle 4011" width="4.13" height="4.13" transform="translate(146.751 97.573)" fill="#e78b37"/>
            <rect id="Rectangle_4012" data-name="Rectangle 4012" width="4.13" height="4.13" transform="translate(146.751 122.542)" fill="#e78b37"/>
            <rect id="Rectangle_4013" data-name="Rectangle 4013" width="4.13" height="4.13" transform="translate(146.751 147.512)" fill="#e78b37"/>
            <rect id="Rectangle_4014" data-name="Rectangle 4014" width="4.13" height="4.13" transform="translate(146.751 172.481)" fill="#e78b37"/>
            <rect id="Rectangle_4015" data-name="Rectangle 4015" width="4.13" height="4.13" transform="translate(169.359 -77.214)" fill="#e78b37"/>
            <rect id="Rectangle_4016" data-name="Rectangle 4016" width="4.13" height="4.13" transform="translate(169.359 -52.244)" fill="#e78b37"/>
            <rect id="Rectangle_4017" data-name="Rectangle 4017" width="4.13" height="4.13" transform="translate(169.359 -27.275)" fill="#e78b37"/>
            <rect id="Rectangle_4018" data-name="Rectangle 4018" width="4.13" height="4.13" transform="translate(169.359 -2.305)" fill="#e78b37"/>
            <rect id="Rectangle_4019" data-name="Rectangle 4019" width="4.13" height="4.13" transform="translate(169.359 22.664)" fill="#e78b37"/>
            <rect id="Rectangle_4020" data-name="Rectangle 4020" width="4.13" height="4.13" transform="translate(169.359 47.634)" fill="#e78b37"/>
            <rect id="Rectangle_4021" data-name="Rectangle 4021" width="4.13" height="4.13" transform="translate(169.359 72.603)" fill="#e78b37"/>
            <rect id="Rectangle_4022" data-name="Rectangle 4022" width="4.13" height="4.13" transform="translate(169.359 97.573)" fill="#e78b37"/>
            <rect id="Rectangle_4023" data-name="Rectangle 4023" width="4.13" height="4.13" transform="translate(169.359 122.542)" fill="#e78b37"/>
            <rect id="Rectangle_4024" data-name="Rectangle 4024" width="4.13" height="4.13" transform="translate(169.359 147.512)" fill="#e78b37"/>
            <rect id="Rectangle_4025" data-name="Rectangle 4025" width="4.13" height="4.13" transform="translate(169.359 172.481)" fill="#e78b37"/>
            <rect id="Rectangle_4026" data-name="Rectangle 4026" width="4.13" height="4.13" transform="translate(191.966 -77.214)" fill="#e78b37"/>
            <rect id="Rectangle_4027" data-name="Rectangle 4027" width="4.13" height="4.13" transform="translate(191.966 -52.244)" fill="#e78b37"/>
            <rect id="Rectangle_4028" data-name="Rectangle 4028" width="4.13" height="4.13" transform="translate(191.966 -27.275)" fill="#e78b37"/>
            <rect id="Rectangle_4029" data-name="Rectangle 4029" width="4.13" height="4.13" transform="translate(191.966 -2.305)" fill="#e78b37"/>
            <rect id="Rectangle_4030" data-name="Rectangle 4030" width="4.13" height="4.13" transform="translate(191.966 22.664)" fill="#e78b37"/>
            <rect id="Rectangle_4031" data-name="Rectangle 4031" width="4.13" height="4.13" transform="translate(191.966 47.634)" fill="#e78b37"/>
            <rect id="Rectangle_4032" data-name="Rectangle 4032" width="4.13" height="4.13" transform="translate(191.966 72.603)" fill="#e78b37"/>
            <rect id="Rectangle_4033" data-name="Rectangle 4033" width="4.13" height="4.13" transform="translate(191.966 97.573)" fill="#e78b37"/>
            <rect id="Rectangle_4034" data-name="Rectangle 4034" width="4.13" height="4.13" transform="translate(191.966 122.542)" fill="#e78b37"/>
            <rect id="Rectangle_4035" data-name="Rectangle 4035" width="4.13" height="4.13" transform="translate(191.966 147.512)" fill="#e78b37"/>
            <rect id="Rectangle_4036" data-name="Rectangle 4036" width="4.13" height="4.13" transform="translate(191.966 172.481)" fill="#e78b37"/>
            <rect id="Rectangle_4037" data-name="Rectangle 4037" width="4.13" height="4.13" transform="translate(214.574 -77.214)" fill="#e78b37"/>
            <rect id="Rectangle_4038" data-name="Rectangle 4038" width="4.13" height="4.13" transform="translate(214.574 -52.244)" fill="#e78b37"/>
            <rect id="Rectangle_4039" data-name="Rectangle 4039" width="4.13" height="4.13" transform="translate(214.574 -27.275)" fill="#e78b37"/>
            <rect id="Rectangle_4040" data-name="Rectangle 4040" width="4.13" height="4.13" transform="translate(214.574 -2.305)" fill="#e78b37"/>
            <rect id="Rectangle_4041" data-name="Rectangle 4041" width="4.13" height="4.13" transform="translate(214.574 22.664)" fill="#e78b37"/>
            <rect id="Rectangle_4042" data-name="Rectangle 4042" width="4.13" height="4.13" transform="translate(214.574 47.634)" fill="#e78b37"/>
            <rect id="Rectangle_4043" data-name="Rectangle 4043" width="4.13" height="4.13" transform="translate(214.574 72.603)" fill="#e78b37"/>
            <rect id="Rectangle_4044" data-name="Rectangle 4044" width="4.13" height="4.13" transform="translate(214.574 97.573)" fill="#e78b37"/>
            <rect id="Rectangle_4045" data-name="Rectangle 4045" width="4.13" height="4.13" transform="translate(214.574 122.542)" fill="#e78b37"/>
            <rect id="Rectangle_4046" data-name="Rectangle 4046" width="4.13" height="4.13" transform="translate(214.574 147.512)" fill="#e78b37"/>
            <rect id="Rectangle_4047" data-name="Rectangle 4047" width="4.13" height="4.13" transform="translate(214.574 172.481)" fill="#e78b37"/>
            <rect id="Rectangle_4048" data-name="Rectangle 4048" width="4.13" height="4.13" transform="translate(237.181 -77.214)" fill="#e78b37"/>
            <rect id="Rectangle_4049" data-name="Rectangle 4049" width="4.13" height="4.13" transform="translate(237.181 -52.244)" fill="#e78b37"/>
            <rect id="Rectangle_4050" data-name="Rectangle 4050" width="4.13" height="4.13" transform="translate(237.181 -27.275)" fill="#e78b37"/>
            <rect id="Rectangle_4051" data-name="Rectangle 4051" width="4.13" height="4.13" transform="translate(237.181 -2.305)" fill="#e78b37"/>
            <rect id="Rectangle_4052" data-name="Rectangle 4052" width="4.13" height="4.13" transform="translate(237.181 22.664)" fill="#e78b37"/>
            <rect id="Rectangle_4053" data-name="Rectangle 4053" width="4.13" height="4.13" transform="translate(237.181 47.634)" fill="#e78b37"/>
            <rect id="Rectangle_4054" data-name="Rectangle 4054" width="4.13" height="4.13" transform="translate(237.181 72.603)" fill="#e78b37"/>
            <rect id="Rectangle_4055" data-name="Rectangle 4055" width="4.13" height="4.13" transform="translate(237.181 97.573)" fill="#e78b37"/>
            <rect id="Rectangle_4056" data-name="Rectangle 4056" width="4.13" height="4.13" transform="translate(237.181 122.542)" fill="#e78b37"/>
            <rect id="Rectangle_4057" data-name="Rectangle 4057" width="4.13" height="4.13" transform="translate(237.181 147.512)" fill="#e78b37"/>
            <rect id="Rectangle_4058" data-name="Rectangle 4058" width="4.13" height="4.13" transform="translate(237.181 172.481)" fill="#e78b37"/>
          </g>
          <rect id="Rectangle_5199" data-name="Rectangle 5199" width="452" height="424" transform="translate(1145 7433)" fill="#fdf6eb"/>
        </g>
        <g id="Group_13638" data-name="Group 13638" transform="translate(680.76 7172.785)">
          <g id="Group_13637" data-name="Group 13637" transform="translate(448.24 1158.146)">
            <g id="Group_13610" data-name="Group 13610" transform="translate(30.866 2.263)">
              <g id="Group_13606" data-name="Group 13606" transform="translate(0 49.059)">
                <path id="Path_45181" data-name="Path 45181" d="M532.441,1409.16a235.646,235.646,0,0,0-2.795-29.273c-2-11.431-3.808-18.007-3.829-18.077-.264-1.006-4.078-5.073-12.557-4.947s-7.675,5.46-7.675,5.46h0a1.691,1.691,0,0,0,.061.474,252.767,252.767,0,0,1,7.528,64.055c0,.5-.062,1.377-.026,1.957,0,0,19.65.5,19.655,0C533.487,1425.667,533.153,1416.963,532.441,1409.16Z" transform="translate(-505.564 -1356.86)" fill="#d1a586"/>
                <path id="Path_45182" data-name="Path 45182" d="M536.791,1426.674c-.006.5-.274.9-.6.9h-.008c-.326-.007-.587-.408-.591-.9h-16.84c-.005.5-.274.9-.6.9h-.008c-.333-.007-.6-.422-.593-.928a247.389,247.389,0,0,0-1.4-28.376,220.275,220.275,0,0,0-6.436-35.475,1.739,1.739,0,0,1-.061-.474s-.8-5.333,7.675-5.46,12.294,3.942,12.558,4.948c.016.052,1.037,3.776,2.4,10.471.45,2.218.935,4.762,1.434,7.6a235.794,235.794,0,0,1,2.795,29.274C537.225,1416.963,537.476,1423.533,536.791,1426.674Z" transform="translate(-507.443 -1356.86)" fill="#e5bd9e"/>
                <path id="Path_45183" data-name="Path 45183" d="M542.377,1439.894c-.006.5-.274.9-.6.9h-.008c-.326-.007-.587-.408-.591-.9h-16.84c-.005.5-.274.9-.6.9h-.008c-.333-.007-.6-.422-.593-.928a247.4,247.4,0,0,0-1.4-28.376c2.785-13.42,13.545-23.684,16.131-25.99.45,2.218.935,4.761,1.434,7.6a235.8,235.8,0,0,1,2.795,29.274C542.811,1430.182,543.062,1436.753,542.377,1439.894Z" transform="translate(-513.03 -1370.079)" fill="#dfb697"/>
                <g id="Group_13601" data-name="Group 13601" transform="translate(5.446 2.117)">
                  <path id="Path_45184" data-name="Path 45184" d="M522.564,1428.3l-.059-.055,0-.052c0-.015,0-.03,0-.044-.006-.314-.467-21.506-1.662-31.612-.712-6.013-5.07-31.109-5.1-31.217a1.347,1.347,0,0,1-.049-.378,3.252,3.252,0,0,1,.777-2.416c.949-1.118,2.638-1.7,5.024-1.738l.286,0c6.118,0,8.934,2.957,9.143,3.752.045.15,4.878,19.531,5.716,30.474.078,1.015.25,2.741.469,4.926,1.284,12.843,2.5,26.573.7,26.885a46.093,46.093,0,0,1-7.776.549c-.717,0-1.4-.007-2.048-.015-.572-.007-1.113-.012-1.614-.012-2.25,0-3.65.135-3.673.806a.277.277,0,0,1,0,.032v.005c0,.052-.017.107-.091.11Zm-.782-67.322-.284,0c-2.327.035-3.969.6-4.88,1.671a3.106,3.106,0,0,0-.732,2.278,1.239,1.239,0,0,0,.043.339c.023.079,4.374,25.086,5.1,31.247,1.1,9.331,1.582,28.1,1.654,31.2.447-.46,1.707-.56,3.683-.56.5,0,1.044.006,1.616.012.644.008,1.329.016,2.046.016h0a45.966,45.966,0,0,0,7.743-.547c1.782-.308,0-18.117-.855-26.677-.219-2.186-.391-3.912-.469-4.929-.839-10.957-5.663-30.262-5.711-30.44C530.538,1363.827,527.789,1360.983,521.782,1360.983Z" transform="translate(-515.678 -1360.791)" fill="#d1a586"/>
                </g>
                <path id="Path_45185" data-name="Path 45185" d="M522.021,1483.636h66.021s-1.537-6.137-39.773-5.223C521.211,1479.06,522.021,1483.636,522.021,1483.636Z" transform="translate(-513.158 -1412.92)" fill="#e5bd9e"/>
                <g id="Group_13602" data-name="Group 13602" transform="translate(3.488 71.667)">
                  <path id="Path_45186" data-name="Path 45186" d="M512.042,1553.109c7.655-38.224,5.687-61.68,5.677-61.975-.019-.589,1.08-1.123,1.672-1.142s3.241-.174,3.547.33c.4.66,1.942,29.558-9.467,62.787Z" transform="translate(-512.042 -1489.959)" fill="#d1a586"/>
                </g>
                <g id="Group_13603" data-name="Group 13603" transform="translate(53.939 71.667)">
                  <path id="Path_45187" data-name="Path 45187" d="M616.931,1553.109c-7.655-38.224-5.687-61.68-5.677-61.975.02-.589-1.08-1.123-1.672-1.142s-3.241-.174-3.547.33c-.4.66-1.942,29.558,9.467,62.787Z" transform="translate(-605.739 -1489.959)" fill="#d1a586"/>
                </g>
                <g id="Group_13604" data-name="Group 13604" transform="translate(66.156 71.667)">
                  <path id="Path_45188" data-name="Path 45188" d="M639.619,1553.109c-7.655-38.224-5.687-61.68-5.677-61.975.019-.589-1.08-1.123-1.672-1.142s-3.241-.174-3.547.33c-.4.66-1.942,29.558,9.467,62.787Z" transform="translate(-628.427 -1489.959)" fill="#a0795f"/>
                </g>
                <g id="Group_13605" data-name="Group 13605" transform="translate(15.787 71.667)">
                  <path id="Path_45189" data-name="Path 45189" d="M534.883,1553.109c7.655-38.224,5.687-61.68,5.677-61.975-.019-.589,1.081-1.123,1.672-1.142s3.241-.174,3.547.33c.4.66,1.942,29.558-9.467,62.787Z" transform="translate(-534.883 -1489.959)" fill="#a0795f"/>
                </g>
                <path id="Rectangle_5258" data-name="Rectangle 5258" d="M1.772,0H66.954a1.772,1.772,0,0,1,1.772,1.772v0a1.772,1.772,0,0,1-1.772,1.772H1.772A1.772,1.772,0,0,1,0,1.772v0A1.772,1.772,0,0,1,1.772,0Z" transform="translate(7.549 69.131)" fill="#d1a586"/>
              </g>
              <g id="Group_13609" data-name="Group 13609" transform="translate(14.678)">
                <path id="Path_45190" data-name="Path 45190" d="M616.548,1410.672s12.069,13.785,14.539,13.56c2.524-.229,4.064-1.025,6.26,0,1.578.737,6.567,4.75,5.228,4.484s-3.763-.577-4.4-.638c-.881-.083-2.3-.1-3.255-.27-.607-.105-2.8-.167-3.531-.191-3.177-.1-18.2-8.882-18.2-8.882Z" transform="translate(-569.914 -1332.638)" fill="#ffb27d"/>
                <path id="Path_45191" data-name="Path 45191" d="M571.082,1273.783s-.545-6.924-10.5-5.126c-2.633.475-4.443-4.219-8.753-2.546-9.281,3.6-9.826-1.154-12.509,5.521-1.123,2.794-8.262,6.047-6.082,10.876s-1.468,8.076,1.1,11.859c1.326,1.958.787,5.458,7.045,5.583,3.117.063,7.971,5.837,11.469,6.886s14-.464,13.6-5.263c-.309-3.744,4.058-3.432,6.74-7.736,2.344-3.761-1.839-4.709.4-10.791C575.225,1278.589,570.954,1277.5,571.082,1273.783Z" transform="translate(-532.824 -1265.749)" fill="#1c468a"/>
                <g id="Group_13607" data-name="Group 13607" transform="translate(91.725 161.949)">
                  <path id="Path_45192" data-name="Path 45192" d="M704.453,1582.928c-.214,2.316,3.01,2.88,6.745,3.065s2.606.951,7.723,1.878,7.168-.473,7.539-1.165c.33-.613-2.049-1.573-4.585-2.657-.319-.135-.639-.275-.958-.415-2.854-1.255-4.455-3.814-6.68-6.187-2.107-2.247-4.109-9.444-4.109-9.444l-6.954-1.484s1.952,6.476,2.63,9.242a8.559,8.559,0,0,1-.712,4.828A9.121,9.121,0,0,0,704.453,1582.928Z" transform="translate(-703.174 -1566.518)" fill="#ffb27d"/>
                  <path id="Path_45193" data-name="Path 45193" d="M712.286,1598.053c3.734.186,2.606.951,7.723,1.878s7.168-.473,7.539-1.165c.33-.613-2.049-1.573-4.585-2.657l-.04.043a14.566,14.566,0,0,1-7.751.093c-3.385-.919-6.659-2.942-8.991-3.6a9.126,9.126,0,0,0-.64,2.34C705.327,1597.3,708.551,1597.868,712.286,1598.053Z" transform="translate(-704.262 -1578.578)" fill="#c65447"/>
                </g>
                <path id="Path_45194" data-name="Path 45194" d="M569.162,1439.373s46.212-3.478,54.912,2.013,22.653,69.446,22.653,69.446a5.678,5.678,0,0,1-2.784.9c-1.789.194-5.728-.858-5.728-.858s-20.053-28.616-21.465-35.825-1.067-13.642-4.284-13.814-43.309,4.874-49.374-5.809-1.051-21.26-1.051-21.26Z" transform="translate(-545.41 -1343.48)" fill="#163560"/>
                <g id="Group_13608" data-name="Group 13608" transform="translate(75.825 162.209)">
                  <path id="Path_45195" data-name="Path 45195" d="M674.923,1583.411c-.213,2.316,3.01,2.879,6.745,3.065s2.606.95,7.723,1.877,7.168-.473,7.539-1.165c.33-.614-2.049-1.573-4.585-2.657-.319-.135-.639-.275-.958-.415-2.854-1.255-4.455-3.814-6.681-6.187-2.107-2.248-4.108-9.444-4.108-9.444L673.644,1567s1.952,6.477,2.63,9.242a8.562,8.562,0,0,1-.712,4.829A9.107,9.107,0,0,0,674.923,1583.411Z" transform="translate(-673.644 -1567.001)" fill="#ffb27d"/>
                  <path id="Path_45196" data-name="Path 45196" d="M682.756,1598.537c3.734.186,2.606.95,7.723,1.878s7.168-.473,7.539-1.165c.33-.614-2.049-1.573-4.585-2.657l-.039.043a14.573,14.573,0,0,1-7.752.092c-3.385-.919-6.658-2.942-8.991-3.6a9.113,9.113,0,0,0-.64,2.34C675.8,1597.788,679.021,1598.351,682.756,1598.537Z" transform="translate(-674.732 -1579.062)" fill="#c65447"/>
                </g>
                <path id="Path_45197" data-name="Path 45197" d="M552.235,1435.855s41.052,1.943,49.532,7.768S621.7,1513.9,621.7,1513.9a5.678,5.678,0,0,1-2.817.789c-1.8.123-5.69-1.081-5.69-1.081s-18.924-29.375-20.055-36.633S592.6,1463.3,589.395,1463s-43.466,3.185-49.11-7.727S552.235,1435.855,552.235,1435.855Z" transform="translate(-535.752 -1344.261)" fill="#1c468a"/>
                <path id="Path_45198" data-name="Path 45198" d="M538.921,1326.885a.656.656,0,0,1,.052-.063,6.48,6.48,0,0,1,1.145-1l.015-.011h0c3.353-2.343,9.345-2.844,9.345-2.844v0h0v0s.655-.062,1.692-.109a31.059,31.059,0,0,0,1.957-9.455l.594.159,9.988,2.679s-.443,3.17-.65,6.171c-.045.657-.079,1.306-.095,1.911.289.105.557.209.793.309h0s5.711.674,7.062,2.126,4.053,11.126,4.735,12.841l-38.455.629S536.14,1330.175,538.921,1326.885Z" transform="translate(-534.725 -1287.742)" fill="#ffb27d"/>
                <path id="Path_45199" data-name="Path 45199" d="M586.018,1376.492c-.225.248-.817,1.3-1.651,2.569-.249.379-.521.775-.81,1.178-1.22,1.693-2.764,3.45-4.363,4.072a2.972,2.972,0,0,1-1.805.165,10.813,10.813,0,0,1-3.788-2.61,23.549,23.549,0,0,1-3.261-3.818,13.214,13.214,0,0,1-.912-1.58q-.08.612-.142,1.172v.007a10.524,10.524,0,0,0,.083,4.3c.42.911,1.775,1.823,3.308,2.723,3.049,1.776,6.849,3.485,5.558,5.03-1.089,1.3-4.474,1.693-8.1,2.291-2.847.468-5.842,1.059-7.973,2.314-.083.047-.166.095-.254.148-5.114,3.012-20.462,12.281-25.014,11.85-1.793-.172-1.461-3.6-.373-8.151,1.711-7.18,5.3-17.153,5.3-21.486,0-2.367-5.315-25.812-5.315-25.812s-.97-10.044,1.811-13.335l1.2-1.071.012-.006h.006c.178.1,11.8,6.647,18.585,7.014,6.836.367,12.1-6.067,12.1-6.067,1.35,1.456,4.055,11.128,4.735,12.838,0,0,5.517,21.77,6.919,22.894S586.7,1375.74,586.018,1376.492Z" transform="translate(-534.116 -1298.379)" fill="#6bb7bf"/>
                <path id="Path_45200" data-name="Path 45200" d="M578.1,1316.374s-.443,3.17-.65,6.171c-5.653-.537-8.3-5.9-9.338-8.85Z" transform="translate(-549.112 -1287.878)" fill="#f4a269"/>
                <path id="Path_45201" data-name="Path 45201" d="M578.78,1304.465s-13.416-.672-12.868-9.021-.816-14.058,7.773-13.981,10.043,3.371,10.537,6.2S582.284,1304.425,578.78,1304.465Z" transform="translate(-548.088 -1273.002)" fill="#ffb27d"/>
                <path id="Path_45202" data-name="Path 45202" d="M578.067,1282.225s-3.206-.748-4.254.811-.3,2.433-2.638,3.088-3.134.608-2.9,2.246-2.351,2.853-2.462,4.163a2.294,2.294,0,0,1-2.216,2.058c-1.029.094-.562-16.889,3.415-17.637s7.813.141,8.982,1.076S578.067,1282.225,578.067,1282.225Z" transform="translate(-546.81 -1270.792)" fill="#1c468a"/>
                <path id="Path_45203" data-name="Path 45203" d="M589.8,1283.135s3.119-.218,3.68,1.56-.187,2.2.608,3.275a4.258,4.258,0,0,1,.335,2.984s6.167-11.359-.335-12.107S587.755,1279.424,589.8,1283.135Z" transform="translate(-558.54 -1271.702)" fill="#1c468a"/>
                <path id="Path_45204" data-name="Path 45204" d="M613.22,1393.586c-.249.379-.521.775-.81,1.178-1.22,1.693-2.764,3.45-4.363,4.072a2.973,2.973,0,0,1-1.805.165,10.815,10.815,0,0,1-3.788-2.61,23.548,23.548,0,0,1-3.261-3.818,13.242,13.242,0,0,1-.912-1.58q-.08.612-.142,1.172v-1.9s.752-33.258,1.9-18.633C600.879,1382.34,608.959,1390.165,613.22,1393.586Z" transform="translate(-562.97 -1312.904)" fill="#599dad"/>
                <path id="Path_45205" data-name="Path 45205" d="M547.319,1373.077s-16.481,28.38,18.174,38.287c.091-.052.176-.1.257-.152,2.13-1.251,5.125-1.842,7.972-2.314,3.629-.594,7.016-.993,8.1-2.29,1.29-1.545-2.505-3.257-5.555-5.032-1.536-.9-4.76-1.765-5.182-2.677C570.761,1398.182,547.319,1373.077,547.319,1373.077Z" transform="translate(-537.706 -1315.286)" fill="#599dad"/>
              </g>
            </g>
            <g id="Group_13614" data-name="Group 13614" transform="translate(0 86.432)">
              <g id="Group_13611" data-name="Group 13611" transform="translate(14.78 5.029)">
                <path id="Path_45206" data-name="Path 45206" d="M494.226,1431.576l-2.648,15v0l-7.313,41.446-6.538,37.05a1.191,1.191,0,0,1-1.183.972.837.837,0,0,1-.846-.937l5.638-42,6.03-44.927.911-6.778Z" transform="translate(-475.69 -1431.406)" fill="#c69d7f"/>
              </g>
              <path id="Path_45207" data-name="Path 45207" d="M501.586,1446.58c.347-6.448-4.213-8.4-4.213-8.4l.911-6.778,5.95.17Z" transform="translate(-470.917 -1426.377)" fill="#a0795f"/>
              <g id="Group_13613" data-name="Group 13613" transform="translate(372.782 5.029)">
                <g id="Group_13612" data-name="Group 13612">
                  <path id="Path_45208" data-name="Path 45208" d="M1158.246,1526.049a1.2,1.2,0,0,1-1.185-.972l-5.807-32.919-8.354-47.344-2.336-13.239,5.95-.17,1.032,7.685,7.249,54.008,4.3,32.013A.838.838,0,0,1,1158.246,1526.049Z" transform="translate(-1140.564 -1431.406)" fill="#c69d7f"/>
                </g>
                <path id="Path_45209" data-name="Path 45209" d="M1147.546,1439.091a8.535,8.535,0,0,0-4.646,5.724l-2.336-13.239,5.95-.17Z" transform="translate(-1140.564 -1431.406)" fill="#a0795f"/>
              </g>
              <path id="Path_45210" data-name="Path 45210" d="M844.323,1432.463H453.438a5.213,5.213,0,0,1-5.2-5.2h0a5.214,5.214,0,0,1,5.2-5.2H844.323a5.213,5.213,0,0,1,5.2,5.2h0A5.213,5.213,0,0,1,844.323,1432.463Z" transform="translate(-448.24 -1422.067)" fill="#e0b594"/>
            </g>
            <g id="Group_13616" data-name="Group 13616" transform="translate(87.471 9.016)">
              <path id="Path_45211" data-name="Path 45211" d="M692.346,1340H610.689l7.577-61.71h81.658Z" transform="translate(-610.689 -1278.291)" fill="#d86713"/>
              <g id="Group_13615" data-name="Group 13615" transform="translate(1.693 0.002)">
                <path id="Path_45212" data-name="Path 45212" d="M703.067,1278.295,695.493,1340h-81.66l1.727-14.066,5.848-47.64Z" transform="translate(-613.833 -1278.295)" fill="#f1a34f"/>
                <path id="Path_45213" data-name="Path 45213" d="M703.068,1278.3,695.493,1340h-81.66l1.727-14.066c67.407,4.063,69.6-38.491,69.3-47.641Z" transform="translate(-613.833 -1278.295)" fill="#e78b37"/>
                <path id="Path_45214" data-name="Path 45214" d="M687.209,1324.16c-.2-1.962-1.224-3.916-3.181-4.158l-3.437.027a3.545,3.545,0,0,0-3.979,3.4l-1.5,46.511a2.83,2.83,0,0,1-2.828,2.738h-8.475a1.163,1.163,0,0,0-1.137.829,1.142,1.142,0,0,0,1.1,1.447h26.563a1.074,1.074,0,0,0,.151-.015l.318,0a1.36,1.36,0,0,0,1.365-1.5Z" transform="translate(-636.354 -1297.545)" fill="#d86713"/>
                <path id="Path_45215" data-name="Path 45215" d="M690.7,1324.16c-.2-1.962-1.224-3.916-3.18-4.158l-3.438.027a3.546,3.546,0,0,0-3.979,3.4l-1.5,46.511a2.83,2.83,0,0,1-2.827,2.738H667.3a1.164,1.164,0,0,0-1.137.829,1.142,1.142,0,0,0,1.1,1.447h26.563a1.082,1.082,0,0,0,.151-.015l.317,0a1.361,1.361,0,0,0,1.366-1.5Z" transform="translate(-637.966 -1297.545)" fill="#f1a34f"/>
              </g>
            </g>
            <g id="Group_13628" data-name="Group 13628" transform="translate(184.786)">
              <g id="Group_13617" data-name="Group 13617">
                <path id="Path_45216" data-name="Path 45216" d="M878.829,1315.524l-4.528,53.843s-.474,3.264,1.953,3.269c3.992.01,19.868,0,19.868,0s-3-.679-2.968-2.208c.043-1.8,5.293-55.414,5.293-55.414Z" transform="translate(-829.657 -1286.225)" fill="#d86713"/>
                <path id="Path_45217" data-name="Path 45217" d="M898.529,1370.822c-.785,0-15.949.05-19.836,0-1.694-.021-1.991-1.506-2.005-2.467a4.792,4.792,0,0,1,.052-.8l.117-1.4.3-3.567.265-3.152.341-4.049.286-3.418,3.218-38.259,19.618-.51s-2.211,22.437-3.775,38.768c-.174,1.819-.341,3.565-.494,5.193-.05.52-.1,1.028-.144,1.523-.145,1.545-.278,2.964-.393,4.217-.061.66-.117,1.274-.167,1.836-.2,2.2-.317,3.609-.318,3.876a2.228,2.228,0,0,0,.038.436C895.953,1370.766,898.234,1370.822,898.529,1370.822Z" transform="translate(-830.776 -1285.387)" fill="#ee9849"/>
                <path id="Path_45218" data-name="Path 45218" d="M794.261,1261.547l11.03,44.306,1.51,6.068,5.137,20.636h95.443l-18.935-71.01Z" transform="translate(-792.732 -1261.547)" fill="#f1a34f"/>
                <path id="Path_45219" data-name="Path 45219" d="M792.95,1261.547l-1.529.51L808.6,1334.1l2.033-1.541Z" transform="translate(-791.422 -1261.547)" fill="#ee9849"/>
                <path id="Path_45220" data-name="Path 45220" d="M823.317,1394.968h94.856l2.62-1.541H825.35Z" transform="translate(-806.143 -1322.416)" fill="#d86713"/>
                <rect id="Rectangle_5259" data-name="Rectangle 5259" width="20.538" height="0.976" transform="translate(71.022 86.432) rotate(180)" fill="#f1a34f"/>
                <path id="Path_45221" data-name="Path 45221" d="M902.628,1319.472l-15.487-56.986H793.977v-.939h94.338l15.435,57.8Z" transform="translate(-792.601 -1261.547)" fill="#f1a34f"/>
                <path id="Path_45222" data-name="Path 45222" d="M896.98,1396.288l-.106.746-19.315,3.9.265-3.151.126-1.5Z" transform="translate(-831.179 -1323.737)" fill="#d86713"/>
                <path id="Path_45223" data-name="Path 45223" d="M898.529,1415c-.785,0-15.949.05-19.836,0-1.694-.021-1.991-1.506-2.005-2.467l19.224-3.617c-.2,2.2-.317,3.609-.318,3.876a2.232,2.232,0,0,0,.038.436C895.954,1414.944,898.235,1415,898.529,1415Z" transform="translate(-830.776 -1329.565)" fill="#e78b37"/>
                <path id="Path_45224" data-name="Path 45224" d="M864.615,1361.362l-41.927,14.376-5.138-20.637Z" transform="translate(-803.482 -1304.727)" fill="#e78b37"/>
                <path id="Path_45225" data-name="Path 45225" d="M794.261,1261.547h94.186l15.282,57.07H807.983Z" transform="translate(-792.732 -1261.547)" fill="#699dee"/>
              </g>
              <path id="Path_45226" data-name="Path 45226" d="M916.033,1378.762a3.229,3.229,0,0,0-3.027-2.534,2.028,2.028,0,0,0-2.041,2.534,3.228,3.228,0,0,0,3.027,2.534A2.028,2.028,0,0,0,916.033,1378.762Z" transform="translate(-846.575 -1314.478)" fill="#d86713"/>
              <path id="Path_45227" data-name="Path 45227" d="M902.63,1318.764H814.444l-9.987-39.784-.766-3.051-.653-2.6-1.532-6.1h86.916l1.682,6.1.718,2.6.841,3.051Z" transform="translate(-796.076 -1264.167)" fill="#e9f3fe"/>
              <path id="Path_45228" data-name="Path 45228" d="M890.1,1273.326H803.038l-1.532-6.1h86.916Z" transform="translate(-796.076 -1264.167)" fill="#afcdfb"/>
              <g id="Group_13618" data-name="Group 13618" transform="translate(9.002 5.052)">
                <path id="Path_45229" data-name="Path 45229" d="M808.164,1271.692a.576.576,0,0,1,.573-.762,1.043,1.043,0,0,1,.953.762.577.577,0,0,1-.573.763A1.043,1.043,0,0,1,808.164,1271.692Z" transform="translate(-808.14 -1270.93)" fill="#e9f3fe"/>
                <path id="Path_45230" data-name="Path 45230" d="M812.871,1271.692a.576.576,0,0,1,.573-.762,1.043,1.043,0,0,1,.953.762.577.577,0,0,1-.573.763A1.043,1.043,0,0,1,812.871,1271.692Z" transform="translate(-810.313 -1270.93)" fill="#e9f3fe"/>
                <path id="Path_45231" data-name="Path 45231" d="M817.94,1271.692a.576.576,0,0,1,.572-.762,1.042,1.042,0,0,1,.953.762.577.577,0,0,1-.573.763A1.042,1.042,0,0,1,817.94,1271.692Z" transform="translate(-812.652 -1270.93)" fill="#e9f3fe"/>
              </g>
              <g id="Group_13619" data-name="Group 13619" transform="translate(16.119 21.378)">
                <path id="Path_45232" data-name="Path 45232" d="M835.611,1302.742h-13.3a1.024,1.024,0,0,1-.933-.746h0a.566.566,0,0,1,.56-.747h13.3a1.023,1.023,0,0,1,.933.747h0A.565.565,0,0,1,835.611,1302.742Z" transform="translate(-821.358 -1301.249)" fill="#afcdfb"/>
                <path id="Path_45233" data-name="Path 45233" d="M836.928,1308.025h-13.3a1.024,1.024,0,0,1-.933-.747h0a.566.566,0,0,1,.561-.747h13.3a1.023,1.023,0,0,1,.933.747h0A.565.565,0,0,1,836.928,1308.025Z" transform="translate(-821.966 -1303.687)" fill="#afcdfb"/>
                <path id="Path_45234" data-name="Path 45234" d="M838.245,1313.307h-13.3a1.023,1.023,0,0,1-.933-.747h0a.565.565,0,0,1,.56-.746h13.3a1.023,1.023,0,0,1,.933.746h0A.566.566,0,0,1,838.245,1313.307Z" transform="translate(-822.574 -1306.125)" fill="#afcdfb"/>
              </g>
              <g id="Group_13620" data-name="Group 13620" transform="translate(39.894 21.378)">
                <path id="Path_45235" data-name="Path 45235" d="M879.765,1302.742h-13.3a1.024,1.024,0,0,1-.933-.746h0a.565.565,0,0,1,.56-.747h13.3a1.023,1.023,0,0,1,.933.747h0A.565.565,0,0,1,879.765,1302.742Z" transform="translate(-865.512 -1301.249)" fill="#afcdfb"/>
                <path id="Path_45236" data-name="Path 45236" d="M881.082,1308.025h-13.3a1.022,1.022,0,0,1-.932-.747h0a.565.565,0,0,1,.56-.747h13.3a1.023,1.023,0,0,1,.933.747h0A.565.565,0,0,1,881.082,1308.025Z" transform="translate(-866.12 -1303.687)" fill="#afcdfb"/>
                <path id="Path_45237" data-name="Path 45237" d="M882.4,1313.307H869.1a1.023,1.023,0,0,1-.933-.747h0a.565.565,0,0,1,.56-.746h13.3a1.023,1.023,0,0,1,.933.746h0A.565.565,0,0,1,882.4,1313.307Z" transform="translate(-866.727 -1306.125)" fill="#afcdfb"/>
              </g>
              <g id="Group_13621" data-name="Group 13621" transform="translate(62.76 21.378)">
                <path id="Path_45238" data-name="Path 45238" d="M922.232,1302.742h-13.3A1.024,1.024,0,0,1,908,1302h0a.566.566,0,0,1,.561-.747h13.3a1.023,1.023,0,0,1,.933.747h0A.565.565,0,0,1,922.232,1302.742Z" transform="translate(-907.979 -1301.249)" fill="#afcdfb"/>
                <path id="Path_45239" data-name="Path 45239" d="M923.549,1308.025h-13.3a1.024,1.024,0,0,1-.933-.747h0a.566.566,0,0,1,.561-.747h13.3a1.024,1.024,0,0,1,.933.747h0A.566.566,0,0,1,923.549,1308.025Z" transform="translate(-908.587 -1303.687)" fill="#afcdfb"/>
                <path id="Path_45240" data-name="Path 45240" d="M924.866,1313.307h-13.3a1.023,1.023,0,0,1-.933-.747h0a.565.565,0,0,1,.56-.746h13.3a1.023,1.023,0,0,1,.933.746h0A.566.566,0,0,1,924.866,1313.307Z" transform="translate(-909.195 -1306.125)" fill="#afcdfb"/>
              </g>
              <g id="Group_13627" data-name="Group 13627" transform="translate(12.316 12.356)">
                <g id="Group_13624" data-name="Group 13624">
                  <g id="Group_13622" data-name="Group 13622">
                    <path id="Path_45241" data-name="Path 45241" d="M891.295,1285.371l.655,2.627a.664.664,0,0,1-.658.876H816.07a1.2,1.2,0,0,1-1.095-.876l-.655-2.627a.663.663,0,0,1,.657-.876H890.2A1.2,1.2,0,0,1,891.295,1285.371Z" transform="translate(-814.294 -1284.495)" fill="#afcdfb"/>
                    <path id="Path_45242" data-name="Path 45242" d="M868.3,1284.495l1.091,4.379H816.07a1.2,1.2,0,0,1-1.095-.876l-.655-2.627a.663.663,0,0,1,.657-.876Z" transform="translate(-814.294 -1284.495)" fill="#f1a34f"/>
                  </g>
                  <g id="Group_13623" data-name="Group 13623" transform="translate(63.587 1.354)">
                    <path id="Path_45243" data-name="Path 45243" d="M933.3,1287.4h-.833l-.084-.337h1.275l.073.293-.426,1.477h-.44Z" transform="translate(-932.386 -1287.036)" fill="#699dee"/>
                    <path id="Path_45244" data-name="Path 45244" d="M935.531,1287.925c-.128-.513.09-.915.561-.915a1.127,1.127,0,0,1,1.013.915c.128.514-.088.916-.561.916A1.123,1.123,0,0,1,935.531,1287.925Zm1.174,0c-.08-.321-.3-.564-.53-.564s-.326.235-.244.564.294.564.53.564S936.787,1288.252,936.706,1287.925Z" transform="translate(-933.821 -1287.01)" fill="#699dee"/>
                    <path id="Path_45245" data-name="Path 45245" d="M938.745,1287.481a.329.329,0,0,1,.32-.453.58.58,0,0,1,.54.453.329.329,0,0,1-.319.453A.582.582,0,0,1,938.745,1287.481Zm1.362-.432h.3l-.851,1.77h-.3Zm-.768.432c-.03-.119-.121-.222-.222-.222s-.137.1-.106.222.121.223.222.223S939.369,1287.6,939.339,1287.481Zm.719.906a.328.328,0,0,1,.319-.453.581.581,0,0,1,.541.453.329.329,0,0,1-.319.453A.581.581,0,0,1,940.058,1288.386Zm.594,0c-.03-.119-.121-.222-.222-.222s-.137.1-.107.222.121.223.222.223S940.682,1288.505,940.653,1288.386Z" transform="translate(-935.313 -1287.018)" fill="#699dee"/>
                  </g>
                </g>
                <g id="Group_13626" data-name="Group 13626" transform="translate(5.724 20.62)">
                  <path id="Path_45246" data-name="Path 45246" d="M892.667,1339.108H886a2.316,2.316,0,0,1-2.118-1.7l-3.223-12.927a1.281,1.281,0,0,1,1.272-1.7H888.6a2.316,2.316,0,0,1,2.118,1.7l3.223,12.927A1.281,1.281,0,0,1,892.667,1339.108Z" transform="translate(-850.624 -1322.79)" fill="#afcdfb"/>
                  <path id="Path_45247" data-name="Path 45247" d="M914.1,1339.108h-6.668a2.315,2.315,0,0,1-2.118-1.7l-3.223-12.927a1.281,1.281,0,0,1,1.272-1.7h6.668a2.315,2.315,0,0,1,2.118,1.7l3.224,12.927A1.281,1.281,0,0,1,914.1,1339.108Z" transform="translate(-860.517 -1322.79)" fill="#afcdfb"/>
                  <path id="Path_45248" data-name="Path 45248" d="M935.134,1339.108h-6.668a2.316,2.316,0,0,1-2.118-1.7l-3.223-12.927a1.281,1.281,0,0,1,1.272-1.7h6.668a2.315,2.315,0,0,1,2.118,1.7l3.223,12.927A1.281,1.281,0,0,1,935.134,1339.108Z" transform="translate(-870.225 -1322.79)" fill="#afcdfb"/>
                  <g id="Group_13625" data-name="Group 13625">
                    <path id="Path_45249" data-name="Path 45249" d="M853.789,1339.108H831.214a3.881,3.881,0,0,1-3.549-2.841l-2.652-10.635a2.146,2.146,0,0,1,2.133-2.841h22.575a3.88,3.88,0,0,1,3.549,2.841l2.652,10.635A2.147,2.147,0,0,1,853.789,1339.108Z" transform="translate(-824.925 -1322.79)" fill="#afcdfb"/>
                    <path id="Path_45250" data-name="Path 45250" d="M851.656,1329.257H830.562a.886.886,0,0,1-.808-.647h0a.49.49,0,0,1,.486-.647h21.093a.886.886,0,0,1,.808.647h0A.49.49,0,0,1,851.656,1329.257Z" transform="translate(-827.145 -1325.178)" fill="#699dee"/>
                    <path id="Path_45251" data-name="Path 45251" d="M852.807,1333.877H831.714a.886.886,0,0,1-.808-.647h0a.49.49,0,0,1,.485-.647h21.093a.886.886,0,0,1,.808.647h0A.49.49,0,0,1,852.807,1333.877Z" transform="translate(-827.676 -1327.31)" fill="#699dee"/>
                    <path id="Path_45252" data-name="Path 45252" d="M853.959,1338.5H832.866a.886.886,0,0,1-.808-.647h0a.49.49,0,0,1,.485-.647h21.093a.887.887,0,0,1,.808.647h0A.49.49,0,0,1,853.959,1338.5Z" transform="translate(-828.208 -1329.442)" fill="#699dee"/>
                    <path id="Path_45253" data-name="Path 45253" d="M839.132,1343.67h-4.976a.886.886,0,0,1-.808-.647h0a.489.489,0,0,1,.485-.647h4.976a.887.887,0,0,1,.808.647h0A.49.49,0,0,1,839.132,1343.67Z" transform="translate(-828.804 -1331.83)" fill="#699dee"/>
                  </g>
                </g>
              </g>
            </g>
            <g id="Group_13629" data-name="Group 13629" transform="translate(281.208 116.752)">
              <path id="Path_45254" data-name="Path 45254" d="M1007.476,1478.377s-11.921,5.912-12.622,12.341S996.715,1536,996.715,1536s12.507,2.365,14.716.065c0,0,3.112-41.592,2.561-43.467s34.319-12.137,37.418-12.072S1007.476,1478.377,1007.476,1478.377Z" transform="translate(-981.682 -1478.377)" fill="#163560"/>
              <path id="Path_45255" data-name="Path 45255" d="M999.329,1581.834s-.728,11.738-3,11.906c-.3.022-11.518.022-11.518.022l-14.317-.083s.094-3.45,4.279-4.179,11.191-3.671,13.726-9.2C991.166,1574.479,999.329,1581.834,999.329,1581.834Z" transform="translate(-970.495 -1524.385)" fill="#163560"/>
            </g>
            <g id="Group_13630" data-name="Group 13630" transform="translate(241.026 90.381)">
              <path id="Path_45256" data-name="Path 45256" d="M924.7,1581.834s-.728,11.738-3,11.906c-.3.022-11.518.022-11.518.022l-14.317-.083s.094-3.45,4.279-4.179,11.19-3.671,13.726-9.2C916.54,1574.479,924.7,1581.834,924.7,1581.834Z" transform="translate(-895.869 -1498.013)" fill="#163560"/>
              <path id="Path_45257" data-name="Path 45257" d="M1025.655,1434.869l-.241.069a4.293,4.293,0,0,0-2.195-2.809c-8.84-5-25.665-1.6-25.665-1.6s-54.284,8.82-59.314,15.967-12.863,68.022-12.863,68.022,9.493,2.48,13.418,1.006c0,0,18.708-48.234,20.223-53.45,1.314-4.523,27.122-1.224,40.14-2.136,7.807-.245,20.017-.8,23.339-1.961C1027.491,1456.242,1025.655,1434.869,1025.655,1434.869Z" transform="translate(-909.489 -1429.4)" fill="#1c468a"/>
            </g>
            <g id="Group_13631" data-name="Group 13631" transform="translate(260.378 0.937)">
              <path id="Path_45258" data-name="Path 45258" d="M1063.829,1306.586l-4.511,5.615-8.537.42c-.086-.812-.382-4.351-.633-7.371-.2-2.467-.374-4.584-.374-4.584l9.017-7.894c.006.05.468,2.672.537,3.053A25.026,25.026,0,0,0,1063.829,1306.586Z" transform="translate(-986.257 -1276.896)" fill="#e49963"/>
              <path id="Path_45259" data-name="Path 45259" d="M1044.651,1312.517c.188-.068,11.538-2.785,12.732-2.321s1.79,2.852,1.79,2.852l-18.5,3.183S1042.264,1313.378,1044.651,1312.517Z" transform="translate(-982.055 -1284.913)" fill="#e58638"/>
              <path id="Path_45260" data-name="Path 45260" d="M1042.212,1291.528s12.1.552,12.33-6.989,1.944-12.55-5.773-13.222-9.306,2.161-9.994,4.66S1039.07,1291.189,1042.212,1291.528Z" transform="translate(-981.083 -1266.947)" fill="#e49963"/>
              <path id="Path_45261" data-name="Path 45261" d="M1037.828,1271.527s2.852,7.958,4.443,7.162,3.05-1.459,3.449,1.061-1.194,5.968,4.111,5.04,9.253-16.275,7.162-18.435C1050.958,1260.121,1029.538,1264.166,1037.828,1271.527Z" transform="translate(-979.874 -1263.287)" fill="#163560"/>
              <path id="Path_45262" data-name="Path 45262" d="M1071.328,1381.982c-3.054,3.609-29.036,2.667-36.649-.379a5.37,5.37,0,0,1-1.339-.72c-4.476-3.581,5.626-6.726-5.669-34.019a.288.288,0,0,1-.016-.04c-8.1-19.614.49-25.97,5.91-29.113,0,0,15.48-4.758,24.136-2.076C1068.94,1319.116,1074.61,1378.1,1071.328,1381.982Z" transform="translate(-974.514 -1287.07)" fill="#ee9849"/>
              <path id="Path_45263" data-name="Path 45263" d="M1046.854,1394.581c-.514,3.716-3.5,12.883-9.329,13.017a5.374,5.374,0,0,1-1.339-.72c-4.476-3.581,5.626-6.726-5.669-34.019a.286.286,0,0,1-.016-.04c1.888-1.3,4.948-2.768,6.935-.519C1040.488,1375.747,1047.383,1390.733,1046.854,1394.581Z" transform="translate(-977.361 -1313.063)" fill="#e58638"/>
              <path id="Path_45264" data-name="Path 45264" d="M946.307,1411.964s-4.877-2.821-6.448-3.054-9.035,6.105-7.939,6.593,6.739-1.893,7.555-1.4,1.448,1.856,2.34,1.872,3.9.016,3.9.016Z" transform="translate(-931.81 -1330.497)" fill="#e49963"/>
              <path id="Path_45265" data-name="Path 45265" d="M1000.991,1320.194s-10.679,5.571-12.08,10.822-6.53,30.694-8.5,32.475-24.664,5.921-24.664,5.921-2.658,2.948-1.823,5.636h35.464s15.983-23.113,14.848-31.835S1000.991,1320.194,1000.991,1320.194Z" transform="translate(-941.941 -1289.552)" fill="#ee9849"/>
            </g>
            <g id="Group_13636" data-name="Group 13636" transform="translate(289.967 46.647)">
              <path id="Path_45266" data-name="Path 45266" d="M1065.536,1479.344H991.869s1.715-6.349,44.379-5.4C1066.44,1474.609,1065.536,1479.344,1065.536,1479.344Z" transform="translate(-989.119 -1406.179)" fill="#e5bd9e"/>
              <g id="Group_13632" data-name="Group 13632" transform="translate(69.925 74.148)">
                <path id="Path_45267" data-name="Path 45267" d="M1129.113,1551.22c-8.541-39.547-6.345-63.814-6.334-64.12.021-.609-1.206-1.162-1.866-1.182s-3.617-.18-3.958.342c-.447.683-2.167,30.582,10.563,64.96Z" transform="translate(-1116.625 -1485.884)" fill="#d1a586"/>
              </g>
              <g id="Group_13633" data-name="Group 13633" transform="translate(13.631 74.148)">
                <path id="Path_45268" data-name="Path 45268" d="M1012.077,1551.22c8.541-39.547,6.345-63.814,6.334-64.12-.021-.609,1.206-1.162,1.866-1.182s3.616-.18,3.958.342c.447.683,2.167,30.582-10.563,64.96Z" transform="translate(-1012.077 -1485.884)" fill="#d1a586"/>
              </g>
              <g id="Group_13634" data-name="Group 13634" transform="translate(0 74.148)">
                <path id="Path_45269" data-name="Path 45269" d="M986.762,1551.22c8.541-39.547,6.345-63.814,6.334-64.12-.021-.609,1.206-1.162,1.865-1.182s3.617-.18,3.958.342c.447.683,2.167,30.582-10.563,64.96Z" transform="translate(-986.762 -1485.884)" fill="#a0795f"/>
              </g>
              <g id="Group_13635" data-name="Group 13635" transform="translate(56.202 74.148)">
                <path id="Path_45270" data-name="Path 45270" d="M1103.628,1551.22c-8.542-39.547-6.345-63.814-6.334-64.12.021-.609-1.206-1.162-1.866-1.182s-3.616-.18-3.958.342c-.447.683-2.167,30.582,10.563,64.96Z" transform="translate(-1091.139 -1485.884)" fill="#a0795f"/>
              </g>
              <path id="Rectangle_5260" data-name="Rectangle 5260" d="M1.834,0H74.851a1.834,1.834,0,0,1,1.834,1.834v0a1.833,1.833,0,0,1-1.833,1.833H1.833A1.833,1.833,0,0,1,0,1.834v0A1.834,1.834,0,0,1,1.834,0Z" transform="translate(77.883 75.191) rotate(180)" fill="#d1a586"/>
              <path id="Path_45271" data-name="Path 45271" d="M1090.648,1402.289a226.475,226.475,0,0,1,3.118-30.287c2.236-11.826,4.25-18.63,4.273-18.7.3-1.04,4.551-5.249,14.012-5.119s8.564,5.649,8.564,5.649h0a1.621,1.621,0,0,1-.068.49,243.715,243.715,0,0,0-8.4,66.272c.005.522.069,1.425.028,2.026,0,0-21.926.517-21.931,0C1089.48,1419.368,1089.852,1410.362,1090.648,1402.289Z" transform="translate(-1034.331 -1348.178)" fill="#d1a586"/>
            </g>
            <path id="Path_45272" data-name="Path 45272" d="M929.81,1419.13s5.919-4.588,8.878-3.146,3.662,3.146,3.662,3.146Z" transform="translate(-670.508 -1332.698)" fill="#1c468a"/>
            <path id="Path_45273" data-name="Path 45273" d="M584.189,1415.522s5.621-1.283,7.4-.74,5.71,3.847,4.754,3.854-4.753-1.783-5.345-1.437-3.255,1.726-4.982,1.035A3.23,3.23,0,0,1,584.189,1415.522Z" transform="translate(-510.987 -1332.211)" fill="#ffb27d"/>
            <path id="Path_45274" data-name="Path 45274" d="M532.36,1342.184s-5.512,14.567-6.175,22.579c-1.038,12.529-.985,20.36-.985,20.36s3.555.152,12.625,0,19.705,0,19.705,0,2.728-2.643-.991-4.67-19.366-5.732-18.976-7.3,5.787-23.317,5.787-23.317Z" transform="translate(-483.76 -1298.765)" fill="#6bb7bf"/>
            <path id="Path_45275" data-name="Path 45275" d="M589.136,1420.493s3.329-2.332,5.66-1.74a11.566,11.566,0,0,1,3.828,1.733Z" transform="translate(-513.271 -1334.061)" fill="#1c468a"/>
          </g>
        </g>
      </g>
    </g>
  </g>
</svg>
